<svg width="60" height="60" viewBox="0 0 60 60" fill="none" xmlns="http://www.w3.org/2000/svg">
<g clip-path="url(#clip0_136320_1944)">
<path d="M30 60C46.5685 60 60 46.5685 60 30C60 13.4315 46.5685 0 30 0C13.4315 0 0 13.4315 0 30C0 46.5685 13.4315 60 30 60Z" fill="url(#paint0_linear_136320_1944)"/>
<path fill-rule="evenodd" clip-rule="evenodd" d="M13.5794 29.6834L31.0748 22.1474C39.4062 18.6821 41.1373 18.0801 42.2657 18.0603C42.5139 18.0559 43.0688 18.1174 43.4282 18.4091C43.7318 18.6553 43.8152 18.9881 43.8552 19.2215C43.8952 19.4549 43.9449 19.9869 43.9054 20.4025C43.4539 25.1461 41.5003 36.6579 40.5065 41.9709C40.0859 44.2191 39.2585 44.9729 38.4563 45.0467C36.7141 45.207 35.3912 43.8953 33.7038 42.7892L27.0088 38.292C24.0468 36.3402 25.9669 35.2674 27.655 33.5142C28.0967 33.0552 35.7727 26.0734 35.9212 25.44C35.9392 25.3608 35.957 25.0656 35.7816 24.9096C35.6062 24.7536 35.3472 24.8076 35.1604 24.8495C34.8956 24.9096 30.6776 27.6975 22.5063 33.2135C21.309 34.0356 20.2245 34.4363 19.2529 34.4153C18.1817 34.3921 16.1213 33.8096 14.5895 33.3117C12.7108 32.701 11.2175 32.3781 11.3476 31.3409C11.4153 30.8007 12.1592 30.2483 13.5794 29.6835L13.5794 29.6834Z" fill="white"/>
</g>
<defs>
<linearGradient id="paint0_linear_136320_1944" x1="30" y1="0" x2="30" y2="59.555" gradientUnits="userSpaceOnUse">
<stop stop-color="#2AABEE"/>
<stop offset="1" stop-color="#229ED9"/>
</linearGradient>
<clipPath id="clip0_136320_1944">
<rect width="60" height="60" fill="white"/>
</clipPath>
</defs>
</svg>
