<svg width="60" height="60" viewBox="0 0 60 60" fill="none" xmlns="http://www.w3.org/2000/svg">
<g clip-path="url(#clip0_136320_1941)">
<path d="M30 59.0625C46.0508 59.0625 59.0625 46.0508 59.0625 30C59.0625 13.9492 46.0508 0.9375 30 0.9375C13.9492 0.9375 0.9375 13.9492 0.9375 30C0.9375 46.0508 13.9492 59.0625 30 59.0625Z" fill="#30BF39"/>
<path d="M38.8124 32.6265C38.4374 32.439 36.4686 31.314 36.0936 31.2202C35.7186 31.0327 35.4374 31.0327 35.1561 31.4077C34.8749 31.7827 34.0311 32.7202 33.8436 32.9077C33.5624 33.189 33.3749 33.189 32.9999 33.0015C32.6249 32.814 31.3124 32.3452 29.8124 30.8452C28.6874 29.7202 27.8436 28.4077 27.6561 27.939C27.4686 27.564 27.6561 27.2827 27.8436 27.0952C28.0311 26.9077 28.2186 26.6265 28.4999 26.439C28.7811 26.2515 28.7811 26.064 28.9686 25.7827C29.1561 25.5015 29.0624 25.314 28.9686 25.0327C28.8749 24.7515 28.1249 22.7827 27.8436 21.939C27.5624 21.0952 27.1874 21.2827 26.9999 21.189C26.7186 21.189 26.5311 21.0952 26.2499 21.0952C25.8749 21.0952 25.4061 21.2827 25.1249 21.564C24.7499 21.939 23.6249 22.8765 23.6249 24.8452C23.6249 26.814 24.9374 28.8765 25.1249 29.064C25.3124 29.3452 27.7499 33.6577 31.7811 35.439C35.8124 37.2202 35.8124 36.6577 36.5624 36.6577C37.3124 36.6577 38.9999 35.7202 39.3749 34.8765C39.7499 33.939 39.7499 33.0952 39.6561 33.0015C39.4686 33.0015 39.1874 32.9077 38.8124 32.6265ZM31.3124 42.2827C28.6874 42.2827 26.2499 41.5327 24.0936 40.1265L19.0311 41.7202L20.7186 36.8452C19.1249 34.5952 18.1874 31.8765 18.1874 29.064C18.1874 21.7515 24.0936 15.8452 31.4061 15.8452C38.7186 15.8452 44.5311 21.7515 44.5311 29.064C44.5311 36.3765 38.6249 42.2827 31.3124 42.2827ZM31.3124 13.2202C22.5936 13.2202 15.4686 20.3452 15.4686 29.064C15.4686 31.9702 16.2186 34.7827 17.7186 37.2202L14.8124 45.7515L23.6249 42.939C25.9686 44.2515 28.5936 44.9077 31.3124 44.9077C40.0311 44.9077 47.1561 37.7827 47.1561 29.064C47.1561 20.3452 40.1249 13.2202 31.3124 13.2202Z" fill="white"/>
</g>
<defs>
<clipPath id="clip0_136320_1941">
<rect width="60" height="60" fill="white"/>
</clipPath>
</defs>
</svg>
